<svg fill="#ed7e7e" xmlns="http://www.w3.org/2000/svg" viewBox="0 0 100 100" xml:space="preserve" stroke="#ed7e7e"><g id="SVGRepo_bgCarrier" stroke-width="0"></g><g id="SVGRepo_tracerCarrier" stroke-linecap="round" stroke-linejoin="round"></g><g id="SVGRepo_iconCarrier"> <g> <g> <path d="M76,20H24c-2.2,0-4,1.8-4,4v8c0,2.2,1.8,4,4,4h52c2.2,0,4-1.8,4-4v-8C80,21.8,78.2,20,76,20z M51,32v-8h25 l0,8H51z"></path> </g> <g> <path d="M76,42H24c-2.2,0-4,1.8-4,4v8c0,2.2,1.8,4,4,4h52c2.2,0,4-1.8,4-4v-8C80,43.8,78.2,42,76,42z M42,54v-8h34 l0,8H42z"></path> </g> <g> <path d="M76,64H24c-2.2,0-4,1.8-4,4v8c0,2.2,1.8,4,4,4h52c2.2,0,4-1.8,4-4v-8C80,65.8,78.2,64,76,64z M60,76v-8h16 l0,8H60z"></path> </g> </g> </g></svg>